<svg width="87" height="84" viewBox="0 0 87 84" fill="none" xmlns="http://www.w3.org/2000/svg">
<circle cx="2.1554" cy="2" r="2" fill="white"/>
<circle cx="22.7528" cy="2" r="2" fill="white"/>
<circle cx="43.3501" cy="2" r="2" fill="white"/>
<circle cx="63.9475" cy="2" r="2" fill="white"/>
<circle cx="84.5449" cy="2" r="2" fill="white"/>
<circle cx="2.1554" cy="22" r="2" fill="white"/>
<circle cx="22.7528" cy="22" r="2" fill="white"/>
<circle cx="43.3501" cy="22" r="2" fill="white"/>
<circle cx="63.9475" cy="22" r="2" fill="white"/>
<circle cx="84.5449" cy="22" r="2" fill="white"/>
<circle cx="2.1554" cy="42" r="2" fill="white"/>
<circle cx="22.7528" cy="42" r="2" fill="white"/>
<circle cx="43.3501" cy="42" r="2" fill="white"/>
<circle cx="63.9475" cy="42" r="2" fill="white"/>
<circle cx="84.5449" cy="42" r="2" fill="white"/>
<circle cx="2.1554" cy="62" r="2" fill="white"/>
<circle cx="22.7528" cy="62" r="2" fill="white"/>
<circle cx="43.3501" cy="62" r="2" fill="white"/>
<circle cx="63.9475" cy="62" r="2" fill="white"/>
<circle cx="84.5449" cy="62" r="2" fill="white"/>
<circle cx="2.1554" cy="82" r="2" fill="white"/>
<circle cx="22.7528" cy="82" r="2" fill="white"/>
<circle cx="43.3501" cy="82" r="2" fill="white"/>
<circle cx="63.9475" cy="82" r="2" fill="white"/>
<circle cx="84.5449" cy="82" r="2" fill="white"/>
</svg>
